<?xml version="1.0" standalone="no"?>
<!DOCTYPE svg PUBLIC "-//W3C//DTD SVG 20010904//EN"
 "http://www.w3.org/TR/2001/REC-SVG-20010904/DTD/svg10.dtd">
<svg version="1.0" xmlns="http://www.w3.org/2000/svg"
 width="690.000000pt" height="362.000000pt" viewBox="0 0 690.000000 362.000000"
 preserveAspectRatio="xMidYMid meet">

<g transform="translate(0.000000,362.000000) scale(0.100000,-0.100000)"
fill="#000000" stroke="none">
<path d="M1540 3609 c-233 -23 -471 -77 -568 -129 -9 -5 -55 -27 -102 -50
-394 -193 -705 -563 -820 -975 -46 -163 -49 -195 -49 -445 0 -254 2 -274 53
-465 20 -74 30 -102 67 -183 16 -35 29 -65 29 -67 0 -2 21 -39 46 -82 131
-221 289 -386 539 -560 29 -20 156 -86 225 -117 203 -90 504 -143 745 -132
127 6 160 10 315 43 347 72 701 293 921 573 32 41 63 80 68 86 10 12 47 77
108 188 41 76 110 267 133 371 32 142 40 341 21 523 -22 206 -103 451 -209
627 -131 218 -342 434 -527 540 -27 15 -52 31 -55 34 -5 6 -104 55 -170 85
-141 62 -340 112 -502 126 -62 6 -129 12 -148 13 -19 2 -73 0 -120 -4z m285
-698 c311 -62 565 -295 667 -614 26 -80 30 -112 35 -248 7 -201 -10 -304 -79
-457 -74 -167 -253 -348 -418 -424 -117 -54 -342 -97 -442 -84 -18 3 -62 7
-98 11 -79 8 -221 56 -304 102 -53 30 -79 49 -169 123 -41 33 -137 163 -172
232 -21 40 -51 114 -68 163 -29 87 -30 96 -31 285 -1 193 6 245 43 335 43 104
61 139 100 200 119 182 344 336 544 371 44 8 83 17 86 20 9 9 242 -2 306 -15z"/>
<path d="M3730 2005 l0 -1535 1145 0 1145 0 0 325 0 325 -767 2 -768 3 -3
1208 -2 1207 -375 0 -375 0 0 -1535z"/>
</g>
</svg>
